<?xml version="1.0" standalone="no"?>
<!DOCTYPE svg PUBLIC "-//W3C//DTD SVG 20010904//EN"
 "http://www.w3.org/TR/2001/REC-SVG-20010904/DTD/svg10.dtd">
<svg version="1.0" xmlns="http://www.w3.org/2000/svg"
 width="3000.000000pt" height="2000.000000pt" viewBox="0 0 3000.000000 2000.000000"
 preserveAspectRatio="xMidYMid meet">

<g transform="translate(0.000000,2000.000000) scale(0.100000,-0.100000)"
fill="#000000" stroke="none">
<path d="M12025 18975 c-22 -8 -254 -77 -515 -155 -261 -78 -578 -172 -705
-210 -126 -38 -511 -153 -855 -255 -992 -296 -1915 -571 -2175 -650 l-240 -72
-565 -373 c-311 -205 -600 -395 -642 -422 -45 -28 -75 -54 -71 -61 3 -6 1 -7
-5 -3 -15 9 -64 -23 -55 -37 3 -6 1 -7 -5 -3 -15 9 -64 -23 -55 -37 3 -6 1 -7
-5 -3 -15 9 -64 -23 -55 -37 3 -6 1 -7 -5 -3 -15 9 -64 -23 -55 -37 3 -6 1 -7
-5 -3 -10 6 -122 -59 -122 -71 0 -2 5 -1 12 3 7 4 8 3 4 -5 -4 -6 -11 -9 -16
-6 -14 9 -51 -15 -44 -27 4 -7 3 -8 -4 -4 -15 9 -64 -23 -55 -37 3 -6 1 -7 -5
-3 -13 8 -64 -22 -57 -34 3 -4 -3 -7 -13 -6 -9 0 -16 -5 -14 -12 1 -8 -2 -11
-8 -7 -5 3 -76 -37 -158 -91 -81 -53 -222 -146 -314 -206 -97 -64 -165 -114
-161 -121 3 -6 1 -7 -6 -3 -7 4 -129 -70 -299 -182 -361 -238 -787 -518 -914
-601 -55 -35 -95 -68 -91 -74 3 -6 1 -7 -5 -3 -11 7 -152 -80 -152 -94 0 -4
126 30 281 76 154 45 295 85 312 88 54 10 -66 -31 -308 -105 -126 -38 -245
-75 -262 -80 -40 -13 -42 -33 -7 -55 24 -16 32 -15 207 36 100 29 189 55 197
58 8 3 -36 -30 -98 -73 -111 -76 -150 -114 -137 -135 16 -26 15 -26 1054 284
250 75 461 136 468 136 12 0 18 30 15 70 -8 96 -7 198 1 215 5 11 13 27 17 35
4 8 16 17 26 18 10 2 28 12 39 21 11 9 32 22 48 29 15 6 27 16 27 21 0 5 13
12 30 16 16 4 30 11 30 16 0 6 15 16 33 24 19 8 39 21 47 29 7 9 20 16 30 16
10 0 23 7 30 16 8 8 27 22 44 30 54 26 97 52 115 68 10 9 24 16 32 16 8 0 22
9 32 20 9 11 26 20 37 20 10 0 24 9 30 20 6 11 19 20 29 20 10 0 24 7 31 16 8
8 27 22 44 30 54 26 97 52 115 68 10 9 24 16 33 16 8 0 23 9 33 20 10 11 25
20 33 20 8 0 27 11 44 25 16 14 35 25 42 25 6 0 19 9 29 20 9 11 25 20 35 20
10 0 25 9 35 20 9 11 23 20 30 20 8 0 22 9 32 20 10 11 25 20 33 20 8 0 27 11
44 25 16 14 35 25 42 25 7 0 21 9 31 20 10 11 26 20 35 20 9 0 25 9 35 20 10
11 26 20 35 20 9 0 25 9 35 20 10 11 24 20 31 20 7 0 20 8 29 17 17 17 56 40
111 67 17 8 36 22 44 30 7 9 20 16 30 16 10 0 23 7 30 16 8 8 27 22 44 30 69
33 103 53 115 68 8 9 22 16 33 16 10 0 21 7 24 15 3 8 21 19 39 25 18 6 36 17
39 25 3 8 14 15 24 15 11 0 31 11 46 25 15 14 33 25 40 25 7 0 21 9 31 20 10
11 26 20 36 20 10 0 21 5 24 10 3 6 24 10 46 10 37 0 39 -2 29 -20 -6 -11 -18
-20 -26 -20 -9 0 -29 -11 -46 -25 -16 -14 -35 -25 -42 -25 -7 0 -21 -9 -31
-20 -10 -11 -26 -20 -35 -20 -9 0 -25 -9 -35 -20 -10 -11 -26 -20 -35 -20 -10
0 -23 -7 -30 -16 -8 -8 -27 -22 -44 -30 -55 -27 -94 -50 -111 -67 -9 -9 -22
-17 -29 -17 -7 0 -23 -9 -36 -20 -13 -11 -28 -20 -35 -20 -7 0 -20 -9 -30 -20
-10 -11 -26 -20 -35 -20 -9 0 -25 -9 -35 -20 -10 -11 -24 -20 -31 -20 -7 0
-26 -11 -42 -25 -17 -14 -37 -25 -45 -25 -8 0 -20 -7 -27 -16 -8 -8 -27 -22
-44 -30 -62 -30 -98 -50 -104 -61 -7 -10 -40 -29 -98 -57 -17 -8 -36 -22 -44
-30 -7 -9 -20 -16 -30 -16 -9 0 -25 -9 -35 -20 -10 -11 -25 -20 -33 -20 -8 0
-27 -11 -44 -25 -16 -14 -35 -25 -42 -25 -7 0 -21 -9 -31 -20 -10 -11 -27 -20
-37 -20 -10 0 -21 -7 -24 -15 -3 -8 -21 -19 -39 -25 -18 -6 -36 -17 -39 -25
-3 -8 -13 -15 -22 -15 -9 0 -29 -11 -46 -25 -16 -14 -35 -25 -42 -25 -7 0 -21
-9 -31 -20 -10 -11 -26 -20 -35 -20 -9 0 -25 -9 -35 -20 -10 -11 -26 -20 -35
-20 -9 0 -25 -9 -35 -20 -10 -11 -24 -20 -31 -20 -7 0 -26 -11 -42 -25 -17
-14 -36 -25 -44 -25 -7 0 -21 -9 -31 -20 -9 -11 -23 -20 -30 -20 -8 0 -22 -9
-32 -20 -10 -11 -26 -20 -35 -20 -9 0 -25 -9 -35 -20 -10 -11 -25 -20 -33 -20
-8 0 -27 -11 -44 -25 -16 -14 -35 -25 -42 -25 -7 0 -21 -9 -31 -20 -10 -11
-26 -20 -35 -20 -9 0 -25 -9 -35 -20 -10 -11 -26 -20 -35 -20 -9 0 -26 -14
-39 -31 -23 -31 -25 -59 -16 -199 1 -19 3 -45 4 -57 1 -19 7 -23 34 -23 17 0
46 9 62 20 50 35 91 49 340 125 132 39 250 75 263 79 21 7 22 5 22 -42 0 -185
60 -532 137 -793 22 -76 28 -87 55 -97 23 -8 28 -15 21 -24 -234 -300 -445
-638 -606 -968 l-75 -155 14 -370 c16 -429 38 -867 60 -1180 20 -294 26 -447
15 -415 -7 20 -9 13 -10 -34 -1 -57 -13 -67 -24 -21 -3 11 -5 -5 -6 -34 -1
-53 -13 -61 -24 -16 -3 11 -5 1 -6 -22 0 -24 -5 -43 -11 -43 -5 0 -10 6 -11
13 0 6 -4 2 -9 -9 -5 -12 -22 -28 -39 -35 -17 -8 -31 -16 -31 -20 0 -3 -16
-11 -35 -19 -19 -8 -35 -18 -35 -23 0 -5 -6 -4 -13 2 -8 6 -16 9 -19 6 -3 -3
-65 20 -138 50 -73 30 -135 55 -138 55 -10 0 7 -560 21 -660 48 -351 119 -692
193 -922 19 -59 34 -112 34 -118 0 -12 78 -222 117 -315 14 -33 40 -96 58
-140 61 -150 229 -479 306 -600 11 -16 54 -85 97 -152 300 -474 699 -919 1163
-1299 145 -118 488 -364 509 -364 5 0 16 24 26 53 9 28 20 57 24 62 4 6 15 35
24 66 9 31 23 69 31 85 8 16 15 33 15 37 0 7 17 48 56 134 8 17 14 34 14 38 0
5 15 42 50 120 5 11 19 43 30 70 21 47 51 114 105 230 13 28 31 67 40 87 10
21 21 38 26 38 5 0 9 6 9 13 0 12 90 198 100 207 4 3 17 27 29 53 13 26 28 53
35 60 6 7 22 32 34 57 30 61 66 124 102 180 17 26 30 51 30 57 0 5 9 18 20 28
11 10 20 22 20 27 0 9 68 119 79 128 3 3 13 19 21 35 8 17 17 32 20 35 18 17
60 80 60 89 0 6 5 11 10 11 6 0 10 7 10 15 0 8 5 15 10 15 6 0 10 7 10 15 0 8
4 15 8 15 4 0 23 26 42 57 19 31 44 66 55 77 11 12 27 35 35 51 8 17 23 37 32
46 10 9 18 19 18 23 0 4 11 18 24 31 l25 24 -148 149 c-81 81 -160 166 -176
187 -17 22 -48 63 -71 91 -44 55 -159 228 -205 308 -81 141 -231 476 -244 547
-2 9 -17 63 -35 120 -35 117 -74 335 -91 514 -14 145 -6 448 15 590 9 55 20
132 26 170 6 39 26 123 45 187 19 65 35 123 35 129 0 20 87 237 138 344 236
497 582 895 1043 1198 376 247 794 397 1274 458 120 15 437 15 555 0 119 -15
341 -56 441 -82 100 -25 341 -108 459 -157 310 -129 654 -345 911 -573 37 -33
71 -59 75 -59 5 0 18 13 29 29 11 17 81 113 155 216 74 102 151 208 170 235
19 27 96 133 170 235 185 255 194 268 290 402 46 65 114 159 150 208 37 50
131 180 210 290 79 110 182 251 228 314 47 63 92 128 101 144 l16 29 -55 50
c-178 163 -404 323 -720 513 -82 49 -457 238 -570 287 -202 87 -544 214 -667
247 -38 10 -122 34 -188 54 -283 83 -724 168 -1054 202 -79 8 -236 15 -350 15
l-207 0 -17 30 c-28 46 -183 257 -244 329 -30 36 -111 123 -180 193 l-125 127
188 124 c104 68 547 359 984 647 437 287 810 533 828 547 25 19 32 31 30 51
-4 39 -34 39 -177 -3 -68 -19 -126 -34 -128 -32 -2 2 59 46 136 96 77 51 142
100 145 108 24 61 -30 95 -109 68z m-5845 -2249 c0 -2 -8 -10 -17 -17 -16 -13
-17 -12 -4 4 13 16 21 21 21 13z m-63 -51 c0 -8 -4 -12 -9 -9 -5 3 -6 10 -3
15 9 13 12 11 12 -6z m-151 -94 c-4 -5 -1 -11 6 -13 8 -3 6 -6 -4 -10 -11 -5
-15 -2 -13 10 5 23 4 22 11 22 3 0 3 -4 0 -9z"/>
<path d="M16390 15036 l0 -1645 23 1 c12 0 45 7 72 14 28 7 68 15 90 18 22 3
74 10 115 15 41 6 93 13 115 16 22 3 51 7 65 10 14 3 41 7 60 10 19 2 53 6 75
9 244 31 294 37 320 40 17 2 62 7 100 10 39 4 90 9 115 11 25 2 79 7 120 10
41 4 82 8 90 10 8 3 71 7 140 11 69 3 137 7 152 9 14 2 106 7 205 10 98 4 192
9 208 10 17 2 126 3 243 4 l212 1 0 1535 0 1535 -1260 0 -1260 0 0 -1644z"/>
<path d="M21031 16624 c-13 -31 -29 -61 -35 -67 -6 -7 -22 -36 -36 -66 -14
-30 -30 -59 -35 -65 -6 -6 -21 -35 -35 -65 -14 -30 -29 -59 -35 -65 -5 -6 -23
-39 -39 -73 -16 -35 -33 -63 -36 -63 -3 0 -17 -25 -29 -55 -13 -31 -29 -61
-36 -68 -6 -7 -24 -40 -40 -75 -15 -34 -31 -62 -34 -62 -4 0 -19 -29 -35 -65
-15 -36 -31 -65 -35 -65 -4 0 -18 -25 -30 -55 -13 -31 -29 -61 -35 -68 -7 -7
-26 -41 -44 -77 -18 -36 -49 -96 -71 -135 -21 -38 -52 -97 -70 -130 -17 -33
-49 -91 -71 -130 -21 -38 -53 -99 -70 -135 -17 -35 -35 -67 -40 -70 -4 -3 -20
-30 -35 -60 -58 -120 -97 -195 -105 -200 -4 -3 -20 -30 -34 -60 -15 -30 -45
-86 -66 -125 -22 -38 -54 -97 -71 -130 -17 -33 -48 -90 -68 -126 -20 -36 -52
-97 -71 -135 -19 -38 -38 -71 -41 -74 -3 -3 -52 -93 -109 -200 -57 -107 -107
-197 -111 -200 -4 -3 -10 -17 -14 -31 l-7 -27 104 -1 c447 -6 1357 -93 1848
-176 47 -8 103 -17 125 -21 73 -10 459 -83 545 -102 97 -22 93 -23 130 57 14
30 30 59 35 65 6 6 21 35 35 65 14 30 30 59 35 65 10 11 33 55 101 189 17 34
37 67 43 74 6 7 22 36 37 65 14 29 42 83 62 119 20 36 52 94 71 130 18 35 36
66 40 69 3 3 19 33 35 68 16 34 32 62 36 62 3 0 18 29 34 65 15 36 32 65 36
65 4 0 18 25 30 56 13 30 29 61 36 69 7 7 26 38 41 68 15 31 78 147 138 258
61 110 125 231 143 268 19 36 38 68 42 71 4 3 20 30 35 60 14 30 43 85 63 122
20 37 52 95 71 130 18 35 36 65 40 68 3 3 19 33 35 68 16 34 33 62 36 62 3 0
17 25 29 55 13 31 29 61 36 68 6 7 24 40 40 75 15 34 31 62 35 62 3 0 17 25
29 55 13 31 29 62 37 69 7 8 26 39 41 69 15 30 62 117 103 192 41 76 91 169
111 206 l36 69 -1456 0 -1456 0 -24 -56z"/>
<path d="M25760 14724 c-36 -7 -200 -38 -365 -69 l-300 -55 -120 -60 c-174
-85 -568 -292 -596 -312 l-24 -17 35 0 c26 -1 31 -4 22 -13 -32 -32 -25 -32
216 -15 19 2 22 8 24 47 l1 45 6 -45 c7 -50 10 -51 76 -27 46 18 49 15 59 -53
5 -38 3 -48 -14 -62 -11 -10 -20 -29 -20 -43 0 -25 40 -100 64 -120 7 -5 19
-23 28 -40 81 -162 113 -204 151 -205 10 0 36 -17 59 -38 l41 -39 -31 -14
c-24 -10 -32 -20 -32 -39 0 -23 -6 -26 -57 -36 -32 -6 -106 -26 -165 -45 -98
-31 -107 -35 -102 -55 6 -22 -17 -77 -37 -89 -11 -7 -49 22 -49 37 0 5 9 4 21
-2 26 -15 32 -9 20 21 -5 13 -10 21 -10 17 -1 -4 -15 1 -33 12 -30 18 -33 18
-52 2 -15 -13 -14 -9 5 16 13 18 43 42 66 52 28 12 44 26 47 42 19 89 24 365
8 393 -8 14 -6 27 5 48 13 26 13 31 -3 54 -14 23 -18 24 -26 10 -5 -10 -15
-17 -23 -17 -25 0 -28 -21 -5 -44 21 -23 21 -26 12 -210 -5 -105 -14 -192 -20
-198 -6 -6 -22 -10 -36 -10 -14 0 -26 -4 -26 -7 0 -12 24 -38 39 -43 8 -2 -2
-15 -27 -32 -45 -31 -58 -52 -42 -71 6 -7 10 -17 8 -21 -4 -16 31 -71 62 -98
22 -18 43 -26 71 -26 43 0 57 15 79 82 11 37 14 38 113 69 145 45 175 47 229
15 25 -14 53 -26 62 -26 30 0 12 -24 -39 -51 -57 -30 -95 -80 -87 -112 3 -12
16 -39 29 -59 18 -29 23 -52 23 -101 0 -57 -3 -66 -30 -92 -16 -16 -30 -37
-30 -47 0 -10 -16 -26 -39 -38 -39 -19 -39 -20 -29 -54 13 -41 6 -53 -56 -98
-46 -33 -73 -35 -126 -8 -22 11 -43 20 -47 20 -17 0 53 -41 86 -50 40 -11 56
-4 121 50 l46 38 33 -27 33 -27 -59 -39 c-87 -59 -101 -65 -152 -65 -51 0
-127 32 -224 94 -51 33 -56 39 -46 57 16 31 35 33 74 9 20 -12 37 -21 39 -19
1 2 -17 22 -41 43 -24 22 -41 32 -37 23 4 -11 1 -17 -9 -17 -9 0 -25 -12 -36
-26 -16 -20 -18 -31 -10 -45 12 -23 -3 -26 -21 -4 -16 20 -5 61 25 91 26 26
33 40 15 29 -6 -4 -24 5 -41 19 -17 14 -35 26 -41 26 -6 0 -31 -21 -54 -47
-49 -53 -104 -177 -104 -234 0 -40 22 -92 53 -126 49 -55 121 -5 141 96 15 80
55 81 202 5 100 -52 112 -56 161 -52 44 4 67 14 129 56 71 49 80 52 138 52 59
0 62 1 97 41 43 51 62 48 102 -16 35 -54 72 -85 103 -85 13 0 47 9 75 21 84
33 113 12 242 -173 44 -63 67 -106 67 -125 0 -22 2 -25 10 -13 5 8 10 10 10 4
0 -22 29 -23 54 -3 l26 20 0 -21 c0 -23 -10 -29 -60 -33 -30 -2 -35 -6 -41
-37 -8 -38 -2 -87 12 -96 5 -3 9 -1 9 5 0 6 14 4 35 -5 41 -17 105 -18 160 -3
68 19 160 68 198 104 31 30 37 33 37 16 0 -37 -102 -103 -205 -133 -62 -19
-177 -23 -204 -8 -30 16 -27 -4 8 -42 25 -28 37 -33 92 -39 82 -8 146 3 231
43 75 34 128 85 128 122 0 31 -53 102 -91 121 -45 24 -96 21 -166 -9 -98 -41
-109 -38 -144 42 -64 143 -95 196 -169 285 -44 52 -80 106 -84 124 -9 41 -49
91 -120 148 -65 53 -69 72 -26 122 33 37 36 53 18 86 -6 12 -17 51 -24 87 -10
52 -10 68 0 78 8 8 59 17 134 22 131 10 196 23 255 51 34 16 37 16 38 1 1 -19
4 -11 13 30 5 24 9 26 36 18 16 -5 38 -6 48 -3 16 4 22 -3 32 -32 11 -34 10
-38 -16 -66 -29 -31 -52 -36 -87 -18 -16 7 -14 3 7 -15 41 -34 62 -37 91 -14
20 16 25 28 25 66 0 26 7 70 16 97 13 42 13 59 3 101 -10 43 -15 51 -30 47
-18 -5 -19 2 -19 96 0 61 -4 101 -10 101 -6 0 -10 -32 -10 -75 0 -69 -2 -75
-21 -75 -11 0 -38 -18 -60 -40 -22 -22 -45 -37 -51 -34 -7 4 -8 2 -4 -5 4 -6
2 -19 -5 -27 -15 -18 -9 -25 17 -18 12 3 27 20 35 37 8 18 21 31 28 29 7 -2
21 4 31 13 14 12 19 13 28 3 15 -18 18 -96 5 -109 -12 -12 -80 -15 -90 -5 -4
3 -16 0 -27 -7 -52 -34 -208 -70 -299 -68 -33 0 -61 2 -63 3 -1 2 0 16 3 31 6
30 -1 29 94 11 20 -4 29 -2 25 4 -3 5 -27 12 -53 14 -27 3 -56 9 -65 13 -14 6
-18 2 -18 -16 0 -12 -10 -38 -22 -56 -22 -32 -38 -42 -38 -24 0 11 -71 54 -77
47 -10 -9 9 -26 29 -26 15 0 18 -3 10 -12 -16 -20 9 -190 31 -212 29 -29 19
-48 -37 -71 -60 -25 -121 -11 -193 45 -102 79 -144 100 -167 80 -8 -6 -12 -18
-9 -26 3 -8 1 -14 -4 -14 -35 0 -46 85 -15 113 10 9 34 23 53 31 47 20 60 36
85 110 15 43 26 61 38 60 11 -1 16 6 16 27 0 59 57 59 174 -1 65 -33 85 -38
66 -15 -11 13 -8 15 16 15 54 0 143 32 183 66 78 67 146 237 111 279 -11 13
-16 12 -40 -8 -22 -17 -25 -26 -18 -40 7 -14 5 -24 -8 -38 -21 -23 -58 -24
-98 -4 -25 13 -27 13 -16 0 6 -8 27 -20 46 -27 19 -6 34 -15 34 -19 0 -12 -50
-67 -80 -89 -17 -12 -64 -27 -109 -35 -71 -12 -86 -12 -126 1 -52 18 -57 35
-15 51 24 9 30 17 30 40 0 39 -41 95 -61 82 -24 -15 -46 -10 -78 17 -25 20
-31 34 -31 64 0 22 8 47 19 61 17 21 22 22 45 11 15 -7 34 -28 42 -48 13 -31
17 -34 32 -23 31 24 52 54 52 76 0 18 6 22 32 21 41 -1 72 34 64 74 -5 24 -2
28 18 28 28 0 56 29 56 58 0 25 1 26 33 11 26 -12 61 -79 73 -139 8 -42 32
-80 49 -80 9 0 6 20 -13 71 -24 70 -25 73 -8 118 20 58 21 120 1 127 -8 3 -17
14 -20 25 -4 11 -15 19 -28 19 -16 0 -38 23 -82 85 -33 47 -60 96 -60 108 0
17 16 30 75 61 225 115 296 175 212 177 -27 0 -27 0 -4 11 12 6 22 15 22 20 0
11 -31 9 -110 -8z m-690 -254 c0 -5 -4 -10 -9 -10 -5 0 -58 -23 -118 -51 -201
-95 -276 -129 -279 -126 -3 2 386 191 404 196 1 1 2 -3 2 -9z m220 -885 c-14
-17 -40 -20 -40 -5 0 6 6 10 14 10 8 0 18 10 22 23 7 19 8 19 12 4 2 -10 -2
-24 -8 -32z m81 14 c11 -5 17 -14 15 -18 -8 -13 -66 0 -66 15 0 17 24 18 51 3z
m-192 -30 c36 -6 69 -14 73 -18 3 -3 -5 -25 -19 -48 -29 -49 -48 -53 -107 -23
-22 10 -42 17 -46 15 -11 -7 -22 43 -15 66 7 22 23 23 114 8z m-568 -222 c10
-3 19 -13 19 -23 0 -15 -3 -14 -25 6 -15 15 -24 33 -24 49 l2 26 4 -26 c2 -16
12 -29 24 -32z m605 -178 c22 -15 46 -35 54 -44 12 -15 11 -16 -16 -9 -67 16
-133 62 -120 83 8 13 31 5 82 -30z m-732 -297 c-51 -42 -104 -174 -104 -260
-1 -53 -2 -56 -16 -37 -22 28 -12 97 24 177 30 65 85 138 106 138 6 0 2 -8
-10 -18z m1293 -247 c45 -58 113 -192 126 -247 4 -14 10 -33 13 -42 11 -28
-24 -18 -42 12 -66 110 -192 285 -234 327 l-50 49 27 22 28 23 43 -42 c24 -23
64 -69 89 -102z"/>
<path d="M5591 14074 c-1 -11 -12 -43 -26 -71 -23 -45 -31 -52 -70 -62 -24 -6
-73 -11 -109 -11 -35 0 -76 -4 -90 -10 -22 -8 -24 -13 -17 -38 25 -87 54 -102
192 -100 65 1 114 6 131 15 62 30 87 146 49 229 -20 44 -41 64 -42 42 0 -7 -4
-4 -9 7 -9 20 -9 20 -9 -1z"/>
<path d="M25617 14072 c-20 -22 -26 -63 -11 -69 6 -2 14 10 17 27 8 36 31 39
65 8 28 -26 20 -5 -11 30 -25 27 -39 28 -60 4z"/>
<path d="M25636 14018 c-10 -13 -16 -43 -16 -75 0 -57 14 -73 64 -73 23 0 26
4 26 33 0 47 -18 102 -39 121 -18 16 -20 16 -35 -6z m42 -32 c2 -10 -2 -15
-10 -14 -8 2 -12 -5 -10 -17 2 -19 2 -20 -12 -1 -11 14 -13 24 -5 38 12 22 32
19 37 -6z"/>
<path d="M25323 13861 c-1 -12 3 -21 9 -21 5 0 8 -7 4 -15 -3 -8 -1 -15 4 -15
14 0 12 33 -3 54 -12 16 -13 16 -14 -3z"/>
<path d="M24926 13564 c-22 -8 -42 -17 -45 -20 -8 -8 48 7 84 22 41 18 10 16
-39 -2z"/>
<path d="M24831 13529 c-13 -5 -21 -12 -18 -15 3 -3 18 1 34 10 31 17 21 20
-16 5z"/>
<path d="M24746 13489 c-22 -12 -49 -19 -63 -16 -22 4 -23 3 -11 -10 13 -12
21 -11 59 6 24 11 51 25 59 30 26 18 -3 11 -44 -10z"/>
<path d="M25560 13490 c0 -5 5 -10 11 -10 5 0 7 5 4 10 -3 6 -8 10 -11 10 -2
0 -4 -4 -4 -10z"/>
<path d="M19328 13045 c-2 -2 -100 -6 -218 -9 -118 -4 -244 -9 -280 -11 -317
-21 -389 -26 -415 -30 -16 -2 -68 -7 -115 -10 -47 -4 -182 -18 -300 -31 -118
-14 -228 -27 -245 -29 -16 -2 -46 -6 -65 -8 -19 -3 -57 -8 -85 -12 -27 -3 -72
-11 -100 -16 -47 -9 -67 -11 -185 -25 -25 -2 -62 -9 -82 -15 -20 -5 -40 -8
-45 -7 -4 1 -42 -6 -83 -15 -41 -9 -95 -19 -120 -21 -25 -3 -58 -9 -72 -15
-15 -5 -51 -13 -80 -16 -29 -3 -87 -14 -128 -25 -42 -10 -91 -21 -110 -23 -38
-5 -194 -40 -249 -56 -19 -6 -37 -8 -42 -6 -4 3 -20 0 -36 -6 -15 -7 -41 -13
-56 -15 -15 -2 -67 -15 -115 -28 -48 -13 -175 -48 -282 -76 -107 -29 -214 -61
-238 -72 -23 -10 -47 -16 -52 -13 -5 3 -12 0 -15 -6 -4 -5 -13 -8 -20 -5 -8 3
-28 -2 -44 -10 -17 -9 -35 -13 -40 -10 -5 4 -11 1 -13 -4 -2 -6 -19 -15 -38
-20 -102 -25 -155 -42 -161 -52 -4 -6 -11 -8 -17 -4 -6 3 -23 1 -39 -6 -15 -6
-32 -10 -37 -9 -5 1 -12 -3 -16 -9 -4 -6 -40 -20 -80 -31 -41 -10 -77 -25 -81
-31 -5 -7 -11 -9 -15 -5 -4 4 -12 3 -18 -2 -6 -5 -50 -21 -98 -36 -48 -14 -90
-30 -94 -36 -3 -5 -15 -7 -26 -3 -12 4 -18 2 -14 -4 3 -5 -21 -17 -54 -26 -33
-9 -60 -20 -60 -24 0 -5 -21 -13 -46 -20 -26 -7 -70 -23 -98 -36 -28 -14 -70
-30 -93 -37 -24 -7 -43 -16 -43 -21 0 -5 -4 -7 -9 -3 -5 3 -12 1 -15 -4 -3 -5
-17 -12 -31 -15 -14 -4 -50 -18 -80 -31 -29 -14 -56 -25 -59 -25 -3 0 -35 -13
-70 -30 -36 -16 -77 -32 -91 -36 -13 -3 -23 -9 -20 -14 2 -4 -14 -13 -37 -19
-23 -7 -58 -21 -77 -32 -20 -10 -41 -19 -48 -19 -6 0 -18 -6 -25 -12 -8 -7
-38 -25 -68 -39 -143 -68 -216 -105 -221 -112 -3 -5 -8 -8 -10 -7 -2 1 -24 -8
-49 -19 -25 -11 -51 -21 -57 -21 -7 0 -13 -4 -13 -10 0 -5 -3 -9 -7 -8 -13 2
-100 -41 -112 -56 -7 -8 -26 -18 -42 -21 -16 -4 -29 -11 -29 -15 0 -5 -18 -15
-41 -21 -23 -7 -43 -18 -46 -25 -3 -7 -21 -18 -41 -25 -20 -6 -45 -20 -55 -30
-11 -10 -33 -21 -48 -24 -16 -4 -29 -10 -29 -14 0 -7 -28 -24 -115 -70 -17 -9
-51 -30 -75 -46 -25 -17 -57 -36 -72 -44 -16 -8 -28 -18 -28 -23 0 -5 -4 -7
-9 -4 -5 3 -14 -1 -21 -9 -7 -8 -19 -15 -27 -15 -7 0 -16 -7 -19 -15 -4 -8
-10 -13 -14 -10 -4 3 -13 -2 -20 -10 -7 -8 -18 -15 -25 -15 -6 0 -20 -9 -31
-21 -10 -12 -36 -28 -56 -36 -21 -8 -38 -19 -38 -24 0 -5 -20 -18 -45 -29 -25
-11 -45 -24 -45 -29 0 -5 -8 -12 -17 -15 -30 -11 -63 -32 -76 -50 -7 -9 -22
-18 -34 -20 -12 -3 -31 -13 -42 -23 -35 -32 -50 -43 -59 -43 -5 0 -22 -13 -38
-30 -16 -16 -35 -30 -41 -30 -7 0 -13 -4 -13 -10 0 -5 -7 -10 -15 -10 -7 0
-18 -6 -22 -14 -4 -7 -21 -20 -38 -29 -16 -9 -42 -27 -57 -41 -15 -14 -32 -26
-39 -26 -6 0 -26 -15 -43 -32 -18 -18 -38 -34 -46 -36 -8 -2 -19 -10 -23 -18
-4 -8 -12 -14 -17 -14 -12 0 -45 -26 -73 -57 -11 -13 -26 -23 -33 -23 -7 0
-21 -11 -31 -23 -10 -13 -29 -30 -42 -37 -14 -7 -35 -23 -48 -36 -13 -13 -28
-24 -32 -24 -5 0 -25 -16 -44 -35 -19 -19 -37 -35 -40 -35 -3 0 -31 -25 -62
-55 -32 -30 -61 -55 -66 -55 -5 0 -24 -16 -44 -35 -19 -20 -35 -33 -35 -31 0
3 -31 -26 -70 -65 -38 -38 -70 -67 -70 -64 0 6 -19 -11 -132 -120 -38 -36 -68
-62 -68 -59 0 6 -26 -20 -97 -100 -24 -27 -43 -45 -43 -42 0 4 -34 -27 -75
-69 -41 -42 -75 -79 -75 -81 0 -11 -68 -72 -74 -67 -3 4 -6 1 -6 -6 0 -7 -17
-30 -37 -52 -21 -22 -58 -62 -83 -88 -79 -84 -120 -132 -120 -137 0 -2 -15
-20 -32 -38 -56 -56 -88 -95 -88 -107 0 -5 -4 -7 -10 -4 -5 3 -10 1 -10 -4 0
-11 -31 -50 -77 -97 -13 -13 -23 -25 -23 -28 0 -7 -26 -40 -57 -72 -13 -13
-23 -27 -23 -32 0 -5 -9 -17 -20 -27 -11 -10 -17 -22 -14 -26 3 -5 -3 -9 -12
-9 -10 0 -15 -3 -11 -6 3 -3 -5 -16 -18 -29 -14 -12 -22 -24 -20 -27 3 -3 -4
-13 -15 -23 -11 -10 -20 -22 -20 -27 0 -5 -10 -19 -22 -32 -37 -38 -58 -66
-58 -76 0 -6 -4 -10 -10 -10 -5 0 -10 -4 -10 -10 0 -9 -9 -22 -45 -64 -13 -15
-33 -47 -42 -66 -7 -14 -27 -41 -50 -65 -7 -8 -13 -18 -13 -24 0 -6 -4 -11
-10 -11 -5 0 -10 -5 -10 -12 0 -6 -7 -20 -17 -30 -19 -21 -40 -56 -49 -80 -3
-10 -10 -18 -15 -18 -5 0 -9 -7 -9 -15 0 -8 -4 -15 -9 -15 -5 0 -17 -16 -27
-36 -11 -20 -23 -44 -29 -55 -5 -10 -13 -19 -17 -19 -5 0 -8 -6 -8 -13 0 -7
-8 -22 -18 -33 -18 -19 -36 -54 -34 -65 1 -4 -8 -15 -18 -24 -11 -10 -20 -24
-20 -32 0 -7 -4 -13 -9 -13 -7 0 -14 -16 -21 -48 -1 -4 -9 -16 -19 -27 -10
-11 -30 -46 -46 -77 -16 -32 -32 -58 -35 -58 -4 0 -10 -9 -13 -20 -3 -11 -6
-24 -7 -28 -1 -4 -11 -19 -21 -34 -10 -14 -19 -31 -19 -36 0 -6 -6 -17 -13
-24 -15 -15 -47 -81 -47 -97 0 -6 -4 -11 -8 -11 -4 0 -16 -20 -26 -45 -11 -25
-23 -45 -28 -45 -4 0 -8 -5 -8 -11 0 -5 -10 -31 -22 -57 -12 -26 -22 -49 -23
-52 0 -3 -14 -34 -32 -70 -47 -97 -103 -221 -103 -228 -1 -4 -9 -25 -20 -47
-11 -22 -19 -44 -20 -48 0 -7 -18 -50 -56 -134 -8 -17 -14 -34 -14 -38 0 -3
-8 -25 -19 -48 -10 -23 -22 -57 -26 -74 -3 -18 -12 -33 -19 -33 -7 0 -147 67
-310 149 -251 127 -296 147 -296 130 0 -28 23 -69 57 -101 47 -45 184 -122
453 -257 430 -214 910 -381 1370 -475 168 -34 209 -25 266 60 24 36 33 43 54
39 57 -11 263 -35 375 -45 156 -13 866 -13 1020 0 109 10 269 31 555 75 236
36 636 143 920 247 266 97 612 257 844 392 977 566 1737 1463 2123 2506 72
197 156 461 172 546 6 27 24 108 41 179 32 132 75 407 105 660 11 93 19 262
22 500 l6 361 92 32 c50 17 95 32 98 32 4 0 7 -1242 7 -2760 l0 -2760 1260 0
1260 0 -2 2034 c-2 1119 0 2032 5 2029 4 -2 7 -10 7 -18 0 -7 6 -20 14 -27 8
-8 26 -39 41 -69 15 -30 31 -56 35 -59 4 -3 20 -30 35 -60 15 -30 31 -57 35
-60 4 -3 22 -32 39 -65 18 -33 50 -89 71 -125 22 -36 52 -90 67 -120 15 -30
33 -58 38 -62 6 -4 22 -31 35 -60 14 -29 32 -61 41 -71 9 -10 25 -37 35 -60
10 -23 22 -45 26 -48 5 -3 23 -33 41 -66 82 -156 100 -188 107 -193 4 -3 20
-30 35 -60 15 -30 31 -57 35 -60 4 -3 20 -30 35 -60 15 -30 31 -57 35 -60 4
-3 22 -32 39 -65 18 -33 50 -89 71 -125 22 -36 52 -90 67 -120 15 -30 33 -58
38 -62 6 -4 22 -31 35 -60 14 -29 30 -58 36 -65 7 -7 22 -34 35 -60 13 -26 29
-54 36 -61 7 -7 22 -34 33 -60 11 -25 25 -49 29 -52 5 -3 21 -30 36 -60 15
-30 31 -57 35 -60 4 -3 20 -30 35 -60 15 -30 31 -57 35 -60 4 -3 22 -32 39
-65 18 -33 50 -89 71 -125 21 -36 55 -94 75 -130 20 -36 54 -94 75 -130 22
-36 50 -85 62 -110 13 -26 33 -58 45 -74 12 -15 29 -47 39 -72 9 -24 20 -44
25 -44 4 0 20 -26 35 -57 16 -32 31 -60 35 -63 3 -3 19 -30 34 -60 15 -30 31
-57 35 -60 4 -3 20 -30 35 -60 15 -30 31 -57 35 -60 4 -3 20 -29 35 -59 14
-29 31 -59 37 -65 5 -6 25 -38 43 -71 53 -94 93 -165 135 -235 22 -36 49 -84
62 -107 l22 -43 1532 0 1532 0 -31 58 c-17 31 -34 59 -38 62 -3 3 -21 32 -38
65 -18 33 -50 89 -71 125 -21 36 -53 90 -70 120 -17 30 -49 84 -70 120 -21 36
-51 87 -65 114 -15 27 -31 54 -37 60 -10 11 -51 84 -109 191 -17 33 -35 62
-39 65 -4 3 -20 30 -35 60 -15 30 -31 57 -35 60 -4 3 -20 30 -35 60 -15 30
-31 57 -35 60 -4 3 -20 30 -35 60 -15 30 -31 57 -35 60 -4 3 -20 30 -35 60
-15 30 -31 57 -35 60 -4 3 -20 30 -35 60 -15 30 -31 57 -35 60 -4 3 -20 30
-35 60 -15 30 -31 57 -35 60 -4 3 -20 30 -35 60 -15 30 -31 57 -35 60 -4 3
-20 30 -35 60 -15 30 -31 57 -35 60 -4 3 -22 32 -39 65 -40 75 -85 153 -101
176 -14 19 -62 104 -111 194 -17 33 -35 62 -39 65 -4 3 -20 30 -35 60 -15 30
-31 57 -35 60 -4 3 -20 30 -35 60 -15 30 -31 57 -35 60 -4 3 -20 30 -35 60
-15 30 -31 57 -35 60 -4 3 -20 30 -35 60 -15 30 -31 57 -35 60 -4 3 -20 30
-35 60 -15 30 -31 57 -35 60 -4 3 -20 30 -35 60 -15 30 -31 57 -35 60 -4 3
-20 30 -35 60 -15 30 -31 57 -35 60 -4 3 -20 30 -35 60 -15 30 -31 57 -35 60
-4 3 -20 30 -35 60 -15 30 -31 57 -35 60 -4 3 -20 30 -35 60 -15 30 -31 57
-35 60 -4 3 -22 32 -40 65 -17 33 -49 89 -70 125 -21 36 -53 92 -71 125 -17
33 -35 62 -39 65 -4 3 -20 30 -35 60 -15 30 -31 57 -35 60 -4 3 -20 30 -35 60
-15 30 -31 57 -35 60 -4 3 -20 30 -35 60 -15 30 -31 57 -35 60 -4 3 -20 30
-35 60 -15 30 -31 57 -35 60 -3 3 -20 30 -36 60 -16 30 -32 57 -35 60 -4 3
-19 30 -34 60 -15 30 -31 57 -35 60 -4 3 -20 29 -35 59 -15 30 -33 60 -40 67
-7 8 -23 35 -36 61 -12 26 -26 50 -29 53 -4 3 -20 30 -35 60 -15 30 -31 57
-35 60 -4 3 -22 33 -39 67 -18 34 -36 65 -41 68 -5 3 -20 29 -35 58 -34 68
-84 155 -112 193 -32 45 -37 77 -17 115 9 19 20 36 25 39 4 3 22 35 39 70 41
86 100 193 108 200 4 3 18 29 32 59 14 30 30 59 35 65 6 6 21 35 35 65 14 30
30 60 36 66 6 6 21 32 32 58 l21 47 118 0 c105 0 638 -31 768 -45 28 -3 160
-17 295 -31 1061 -109 2179 -352 3185 -693 516 -175 877 -319 1430 -571 154
-70 317 -141 362 -158 128 -50 164 -40 106 29 l-27 32 24 -8 c22 -7 23 -6 8 9
-9 9 -21 16 -26 16 -5 0 -27 16 -48 35 -21 20 -49 38 -61 41 -13 4 -23 10 -23
15 0 5 -7 9 -15 9 -8 0 -15 4 -15 10 0 5 -11 12 -25 16 -14 3 -25 10 -25 15 0
5 -7 9 -15 9 -8 0 -15 3 -15 8 0 7 -30 25 -62 38 -10 3 -18 10 -18 15 0 5 -7
9 -15 9 -8 0 -15 4 -15 10 0 5 -11 12 -25 16 -14 3 -25 10 -25 15 0 5 -7 9
-15 9 -8 0 -15 4 -15 9 0 5 -11 12 -25 15 -14 4 -25 11 -25 16 0 6 -7 10 -15
10 -8 0 -15 5 -15 10 0 6 -6 10 -14 10 -8 0 -16 3 -18 8 -1 4 -23 17 -48 30
-25 12 -54 28 -64 35 -11 7 -50 31 -88 54 -37 23 -79 45 -93 49 -14 3 -25 10
-25 15 0 5 -5 9 -10 9 -6 0 -28 11 -50 25 -22 14 -47 25 -55 25 -9 0 -14 4
-11 9 3 5 -11 16 -32 26 -71 32 -87 40 -100 53 -7 6 -18 12 -24 12 -5 0 -23 9
-39 21 -16 11 -33 17 -39 14 -5 -3 -10 -2 -10 3 0 5 -8 12 -17 16 -10 3 -42
19 -72 36 -30 16 -60 30 -67 30 -8 0 -14 4 -14 9 0 5 -10 13 -22 17 -13 3 -34
15 -48 24 -14 10 -28 18 -32 19 -18 3 -44 13 -63 24 -41 22 -198 98 -215 103
-39 12 -50 18 -50 25 0 5 -5 9 -12 9 -6 0 -36 12 -67 26 -31 14 -72 33 -91 41
-73 30 -200 87 -243 109 -16 8 -33 14 -38 14 -10 0 -91 34 -121 50 -10 6 -23
10 -28 10 -10 0 -33 9 -125 50 -11 5 -31 12 -45 15 -14 4 -38 12 -55 20 -71
32 -104 45 -114 45 -6 0 -19 4 -29 9 -29 15 -124 51 -136 51 -6 0 -23 6 -38
14 -15 8 -42 17 -60 21 -18 4 -38 11 -43 16 -9 7 -181 67 -210 72 -5 2 -14 5
-20 9 -5 3 -26 9 -45 13 -19 4 -41 11 -50 15 -20 10 -163 56 -220 70 -25 6
-54 15 -65 20 -11 5 -49 16 -85 25 -36 9 -74 20 -85 25 -23 11 -145 44 -368
100 -88 22 -180 46 -205 54 -26 7 -99 25 -162 39 -63 14 -155 35 -205 46 -196
44 -588 117 -845 157 -510 80 -1037 137 -1520 163 -102 6 -239 13 -305 17
-118 6 -911 14 -917 9z m-6214 -3422 c-8 -27 -22 -73 -30 -103 -18 -59 -110
-252 -146 -304 -181 -262 -393 -442 -693 -585 -148 -71 -373 -151 -465 -165
l-45 -7 85 86 c186 189 581 549 825 752 86 71 472 370 482 372 1 1 -5 -20 -13
-46z"/>
<path d="M10810 11515 c0 -453 2 -514 15 -509 8 4 15 10 15 14 0 4 13 13 29
20 16 6 32 18 35 26 3 8 10 14 16 14 11 0 44 25 69 53 8 9 21 17 28 17 7 0 13
5 13 10 0 6 7 10 15 10 7 0 18 6 22 14 4 7 22 20 38 29 17 9 42 27 57 41 15
14 32 26 38 26 6 0 21 11 34 24 12 14 28 26 36 28 16 4 47 26 69 51 8 9 23 17
33 17 10 0 23 9 30 20 7 11 32 30 56 41 23 12 42 25 42 29 0 5 20 18 45 29 25
11 45 24 45 28 0 5 17 16 38 25 20 9 48 25 61 37 13 12 29 21 36 21 7 0 24 11
38 24 14 13 39 30 56 37 17 8 31 17 31 21 0 4 7 4 17 1 10 -4 14 -2 9 5 -3 6
3 13 16 17 13 4 32 15 43 25 11 9 35 23 53 31 17 8 32 18 32 22 0 5 4 6 9 3 5
-3 11 0 14 8 3 8 19 17 35 21 17 3 38 15 47 25 9 10 30 22 45 25 15 3 36 15
45 25 9 10 30 22 46 25 16 4 29 11 29 16 0 6 4 8 9 5 5 -3 11 0 14 8 3 7 18
16 32 20 15 4 34 14 42 21 13 13 -86 15 -781 15 l-796 0 0 -515z"/>
<path d="M9222 5205 c-440 -57 -779 -311 -892 -670 -28 -89 -38 -264 -20 -372
50 -314 291 -574 650 -701 163 -57 233 -67 475 -67 202 1 229 3 330 27 165 39
225 66 252 113 35 63 107 235 100 241 -3 4 -37 -14 -74 -39 -90 -59 -121 -74
-223 -109 -166 -56 -410 -75 -572 -44 -313 60 -569 284 -643 561 -21 78 -21
241 0 320 55 215 224 401 451 498 140 60 208 72 394 71 144 -1 178 -4 265 -27
55 -15 141 -47 190 -71 68 -34 93 -42 101 -33 22 24 87 188 78 196 -19 18
-346 91 -470 106 -152 18 -251 18 -392 0z"/>
<path d="M25125 5213 c-621 -57 -1046 -489 -986 -1001 47 -393 351 -691 813
-794 90 -20 130 -23 318 -23 171 0 231 4 295 18 112 26 238 67 262 86 18 14
133 251 133 273 0 15 -21 8 -67 -26 -112 -79 -264 -139 -413 -161 -112 -17
-292 -19 -376 -4 -188 33 -357 122 -485 255 -80 84 -129 164 -165 269 -38 109
-40 272 -5 385 60 197 202 356 404 455 153 74 223 89 427 88 157 0 185 -2 275
-26 55 -15 140 -47 190 -72 49 -24 93 -41 97 -37 16 17 88 196 81 202 -4 4
-84 26 -176 49 -232 57 -450 80 -622 64z"/>
<path d="M6411 5182 c-30 -15 -69 -86 -383 -682 -397 -757 -469 -889 -532
-988 -26 -39 -46 -73 -46 -77 0 -3 65 -4 145 -3 l146 3 33 82 c19 44 80 169
137 277 74 142 109 198 123 202 12 2 181 3 376 2 l355 -3 47 -95 c58 -118 130
-284 178 -413 21 -54 42 -103 47 -108 6 -6 45 1 106 20 53 17 115 35 137 41
22 6 40 17 40 25 0 7 -33 78 -74 157 -100 192 -669 1398 -722 1530 -17 42 -23
48 -49 48 -16 0 -45 -8 -64 -18z m146 -699 c91 -208 128 -300 120 -305 -14 -9
-528 -11 -551 -2 -13 5 12 62 136 305 84 164 155 299 158 299 3 0 65 -134 137
-297z"/>
<path d="M12031 5183 c-31 -16 -71 -88 -410 -733 -414 -787 -433 -821 -503
-931 -26 -42 -48 -79 -48 -83 0 -3 66 -5 146 -4 l146 3 29 75 c16 41 77 167
137 280 l107 205 371 3 c290 2 374 -1 382 -10 23 -30 183 -392 229 -523 14
-38 30 -76 37 -82 9 -10 41 -4 149 29 75 23 137 45 137 51 0 5 -40 89 -89 186
-94 187 -536 1119 -657 1386 -67 149 -74 160 -101 163 -15 1 -43 -6 -62 -15z
m145 -701 c89 -200 128 -299 120 -304 -14 -9 -550 -10 -559 -1 -7 6 293 603
303 603 3 0 64 -134 136 -298z"/>
<path d="M19548 5188 c-16 -5 -28 -13 -29 -16 0 -4 -2 -14 -3 -22 -2 -8 -6
-58 -10 -110 -10 -133 -26 -246 -116 -810 -78 -487 -118 -708 -139 -763 -6
-16 -11 -30 -11 -33 0 -2 72 -4 160 -4 l160 0 1 38 c0 20 2 51 5 67 2 17 8 71
14 120 6 50 36 262 67 473 44 292 60 379 68 370 21 -23 411 -709 499 -878 48
-91 90 -172 95 -180 8 -14 55 -18 85 -7 7 3 39 54 71 114 32 59 168 301 304
536 180 313 248 423 253 410 7 -17 32 -183 103 -668 18 -126 37 -273 41 -325
3 -52 11 -98 16 -101 5 -3 46 0 91 8 45 7 108 16 140 19 32 4 60 10 62 14 3 4
-9 68 -25 141 -48 216 -204 1215 -231 1477 l-12 122 -49 0 c-43 0 -50 -3 -58
-26 -33 -85 -723 -1294 -739 -1294 -3 0 -40 60 -81 133 -41 73 -174 304 -296
515 -122 211 -255 452 -295 537 -79 165 -80 166 -141 143z"/>
<path d="M14017 5051 c10 -165 10 -1341 0 -1499 l-8 -122 448 3 c410 4 459 6
573 26 542 97 812 376 812 841 1 461 -282 751 -832 852 -105 20 -155 22 -558
23 l-443 2 8 -126z m883 -66 c385 -58 610 -260 650 -582 29 -230 -30 -433
-165 -569 -79 -79 -144 -119 -266 -162 -144 -51 -257 -66 -499 -66 -118 -1
-232 3 -253 7 -69 14 -67 -4 -67 714 0 351 4 643 8 649 13 20 36 22 267 23
154 1 261 -4 325 -14z"/>
<path d="M17007 5068 c10 -145 11 -1377 0 -1526 l-8 -112 553 2 552 3 28 75
c15 41 28 80 28 87 0 9 -99 11 -402 10 -433 -2 -439 -2 -458 49 -16 40 -13
561 3 571 6 4 133 8 281 8 l270 0 37 85 c21 47 38 88 38 93 1 4 -117 4 -261 1
-145 -4 -289 -4 -321 0 l-59 8 4 276 c1 152 7 283 12 291 7 11 73 13 378 10
l369 -4 35 80 c19 44 38 86 41 93 4 9 -112 12 -562 12 l-567 0 9 -112z"/>
<path d="M22677 5063 c10 -154 10 -1375 0 -1520 l-8 -113 155 0 156 0 -8 78
c-9 101 -9 1459 0 1580 l8 92 -156 0 -155 0 8 -117z"/>
</g>
</svg>
